<?xml version="1.0" encoding="UTF-8" standalone="no"?>
<!-- Created with Inkscape (http://www.inkscape.org/) -->

<svg
   xmlns:dc="http://purl.org/dc/elements/1.1/"
   xmlns:cc="http://creativecommons.org/ns#"
   xmlns:rdf="http://www.w3.org/1999/02/22-rdf-syntax-ns#"
   xmlns:svg="http://www.w3.org/2000/svg"
   xmlns="http://www.w3.org/2000/svg"
   xmlns:xlink="http://www.w3.org/1999/xlink"
   xmlns:sodipodi="http://sodipodi.sourceforge.net/DTD/sodipodi-0.dtd"
   xmlns:inkscape="http://www.inkscape.org/namespaces/inkscape"
   width="242.57001"
   height="122.25"
   id="svg9073"
   sodipodi:version="0.32"
   inkscape:version="0.46+devel"
   sodipodi:docname="qwe.svg"
   inkscape:output_extension="org.inkscape.output.svg.inkscape"
   inkscape:export-xdpi="90"
   inkscape:export-ydpi="90"
   version="1.0">
  <title
     id="title2984">qwe.svg</title>
  <sodipodi:namedview
     id="base"
     pagecolor="#ffffff"
     bordercolor="#666666"
     borderopacity="1.0"
     inkscape:pageopacity="0.0"
     inkscape:pageshadow="2"
     inkscape:zoom="1.4142136"
     inkscape:cx="7.0614545"
     inkscape:cy="23.787375"
     inkscape:current-layer="layer1"
     inkscape:document-units="px"
     showgrid="false"
     showguides="true"
     inkscape:guide-bbox="true"
     inkscape:window-width="1278"
     inkscape:window-height="745"
     inkscape:window-x="0"
     inkscape:window-y="0"
     inkscape:showpageshadow="false"
     borderlayer="false"
     showborder="true"
     inkscape:window-maximized="0" />
  <defs
     id="defs9075">
    <linearGradient
       id="linearGradient9793">
      <stop
         style="stop-color:#2997f6;stop-opacity:0.78431374;"
         offset="0"
         id="stop9795" />
      <stop
         style="stop-color:#2997f6;stop-opacity:0.78431374;"
         offset="1"
         id="stop9797" />
    </linearGradient>
    <linearGradient
       id="linearGradient9785">
      <stop
         style="stop-color:#fc644b;stop-opacity:0.78431374;"
         offset="0"
         id="stop9787" />
      <stop
         style="stop-color:#fc644b;stop-opacity:0.78431374;"
         offset="1"
         id="stop9789" />
    </linearGradient>
    <linearGradient
       id="linearGradient2558">
      <stop
         id="stop2560"
         offset="0"
         style="stop-color:#000000;stop-opacity:1;" />
      <stop
         id="stop2562"
         offset="1"
         style="stop-color:#000000;stop-opacity:1;" />
    </linearGradient>
    <linearGradient
       y2="203.60176"
       x2="129.53438"
       y1="92.09787"
       x1="130.93193"
       gradientTransform="translate(317.26598,116.66877)"
       gradientUnits="userSpaceOnUse"
       id="linearGradient9117"
       xlink:href="#linearGradient2558"
       inkscape:collect="always" />
    <linearGradient
       inkscape:collect="always"
       xlink:href="#linearGradient9793"
       id="linearGradient9804"
       gradientUnits="userSpaceOnUse"
       x1="375.8205"
       y1="160.44063"
       x2="375.8205"
       y2="271.94452"
       gradientTransform="translate(-8.4689526,44.091872)" />
    <linearGradient
       inkscape:collect="always"
       xlink:href="#linearGradient2558"
       id="linearGradient9806"
       gradientUnits="userSpaceOnUse"
       gradientTransform="translate(315.47824,112.43464)"
       x1="130.93193"
       y1="92.09787"
       x2="129.53438"
       y2="203.60176" />
    <linearGradient
       inkscape:collect="always"
       xlink:href="#linearGradient9785"
       id="linearGradient9808"
       gradientUnits="userSpaceOnUse"
       x1="290.7309"
       y1="146.61124"
       x2="290.7309"
       y2="252.65825"
       gradientTransform="translate(-9.9447373,41.988685)" />
  </defs>
  <metadata
     id="metadata9078">
    <rdf:RDF>
      <cc:Work
         rdf:about="">
        <dc:format>image/svg+xml</dc:format>
        <dc:type
           rdf:resource="http://purl.org/dc/dcmitype/StillImage" />
        <dc:title>qwe.svg</dc:title>
        <dc:date>2009-12-16</dc:date>
        <dc:creator>
          <cc:Agent>
            <dc:title>Francesc Rocher</dc:title>
          </cc:Agent>
        </dc:creator>
        <dc:rights>
          <cc:Agent>
            <dc:title>Copyright (C)  2009  Francesc Rocher</dc:title>
          </cc:Agent>
        </dc:rights>
        <cc:license
           rdf:resource="http://www.gnu.org/licenses/gpl.html" />
        <dc:description>QWE logo</dc:description>
      </cc:Work>
    </rdf:RDF>
  </metadata>
  <g
     style="opacity:1;display:inline"
     inkscape:label="qwe-bg"
     id="layer2"
     inkscape:groupmode="layer"
     transform="translate(-178.80865,-201.98753)">
    <path
       inkscape:export-ydpi="90"
       inkscape:export-xdpi="90"
       sodipodi:nodetypes="cssssssssssssssssssssccsssc"
       inkscape:label="emacs"
       id="emacs"
       d="M 322.19767,317.17261 C 317.83891,313.50494 318.11459,309.72532 323.52691,298.94873 C 327.42203,291.19309 329.34078,288.81854 340.07578,278.46871 C 347.80675,271.01513 351.5651,266.76014 350.41982,266.75776 C 349.43044,266.7557 347.15844,265.86232 345.37094,264.77246 C 339.19798,261.00873 341.69208,255.95087 356.59461,242.01165 C 366.70764,232.55234 378.19715,223.81778 387.17009,218.76754 C 398.77153,212.23788 412.91852,207.8926 416.80721,209.6644 C 420.75085,211.46124 419.69072,214.66603 413.06805,220.96795 C 407.43387,226.32926 395.40381,234.37769 394.45003,233.42391 C 394.21839,233.19228 396.92211,230.93818 400.45829,228.41481 C 404.63942,225.43122 407.12036,222.89995 407.553,221.17619 C 407.9189,219.71831 407.98543,218.29265 407.70084,218.00806 C 407.03259,217.33981 393.73785,221.52696 388.88685,223.93348 C 375.92557,230.3634 356.12094,245.97291 356.12094,249.75873 C 356.12094,255.64645 367.46017,256.63853 377.39946,251.62041 C 384.35388,248.10929 389.12094,246.50637 389.12094,247.67908 C 389.12094,249.9618 376.81261,259.84487 370.07649,262.97097 C 359.38045,267.9348 351.98194,272.94936 343.58233,280.92817 C 335.83731,288.28518 332.12094,294.31377 332.12094,299.52052 C 332.12094,303.04298 335.07412,305.7615 338.90063,305.7615 C 346.80761,305.7615 352.09686,302.55375 375.30278,283.68483 C 393.44207,270.37603 393.53512,270.42792 371.62094,291.78393 C 369.42094,293.78958 366.44172,296.29252 365.00044,297.34603 C 363.55917,298.39954 359.28417,301.77497 355.50044,304.84698 C 351.71672,307.919 345.03035,312.5315 340.64185,315.09699 C 331.12704,320.65927 326.90587,321.1343 322.19767,317.17261 z"
       style="fill:#000000;fill-opacity:1;stroke:url(#linearGradient9117);display:inline" />
    <path
       transform="scale(0.922705,1.08377)"
       style="font-size:126.19655609px;font-style:italic;font-variant:normal;font-weight:bold;font-stretch:normal;text-align:start;line-height:100%;writing-mode:lr-tb;text-anchor:start;fill:#000000;fill-opacity:1;stroke:none;stroke-width:1px;stroke-linecap:butt;stroke-linejoin:miter;stroke-opacity:1;font-family:PakTypeNaqsh;-inkscape-font-specification:PakTypeNaqsh Bold Italic"
       d="M 201.04321,253.80721 C 199.97513,261.03726 199.99567,269.21209 201.10483,278.33174 C 202.5426,289.87511 205.52087,295.77003 210.03964,296.01651 C 214.80485,296.26299 219.36468,295.40032 223.71915,293.42849 C 226.26605,292.23719 229.32648,290.28591 232.90045,287.57465 C 235.81705,285.35636 237.78887,284.18559 238.81591,284.06234 C 241.28063,283.81588 243.95081,285.4796 246.82643,289.05352 C 247.03177,289.34108 248.81873,292.07287 252.18732,297.2489 C 254.118,296.50946 255.20661,295.97543 255.45315,295.64679 C 255.69956,295.31816 256.74709,292.97662 258.59574,288.62218 C 257.69192,288.17031 255.88442,285.91094 253.17323,281.84405 C 250.2976,277.5307 249.00359,274.69621 249.29121,273.34057 C 249.29115,273.17627 249.33223,273.05303 249.41445,272.97085 C 259.15025,258.96274 264.90138,247.52208 266.66788,238.64884 C 267.36616,235.15713 267.71534,231.62429 267.71541,228.0503 C 267.67426,225.58559 266.8732,222.56624 265.31226,218.99224 C 263.95655,215.91135 262.53931,213.42604 261.06052,211.5363 C 259.49942,197.98012 255.10391,191.28415 247.87396,191.44837 C 245.57345,191.48955 240.93146,194.32404 233.94798,199.95185 C 225.64986,206.64791 218.66633,214.08331 212.99738,222.25807 C 205.68519,232.89776 201.70047,243.41412 201.04321,253.80721 M 241.03421,214.18593 C 238.5283,219.32096 236.00191,224.43536 233.45502,229.52916 C 230.70265,235.28037 228.89514,240.251 228.03251,244.44106 C 226.47145,252.28731 227.51898,260.42107 231.1751,268.84235 L 231.29834,274.32648 C 224.47909,280.07764 218.93335,282.95321 214.6611,282.95319 C 212.4017,282.95321 210.45042,282.21378 208.80726,280.7349 C 208.10888,280.11872 207.80079,276.4421 207.88297,269.70502 C 208.00618,263.09124 208.33482,259.00382 208.86888,257.44276 C 217.49556,234.315 229.55242,218.04749 245.03947,208.64018 C 245.40913,208.88675 245.55291,209.25646 245.47081,209.74933 C 245.30643,210.48885 244.62862,211.3926 243.43737,212.46059 C 242.49248,213.32334 241.69143,213.89846 241.03421,214.18593 M 254.71372,218.99224 C 260.21831,218.70476 261.98474,223.57269 260.01299,233.59605 C 259.72536,234.99281 259.37618,236.4306 258.96546,237.9094 C 256.29522,246.86481 252.37212,254.05373 247.19615,259.4762 C 246.62098,260.05135 245.26535,261.94101 243.12927,265.14518 C 241.60927,267.48675 240.41796,268.65752 239.55534,268.65749 C 239.1445,268.65752 238.77478,268.4932 238.44619,268.16454 C 234.9133,264.42632 233.86577,258.90112 235.3036,251.58891 C 235.96083,248.26151 237.15214,244.58489 238.87753,240.55904 C 241.91737,233.28801 244.1562,228.50224 245.59405,226.20172 C 248.42848,221.51872 251.46837,219.11556 254.71372,218.99224 M 361.25368,199.76699 C 360.76063,199.84924 356.22134,210.30399 347.63579,231.13127 C 338.72144,252.65703 333.66865,265.98735 332.47742,271.12227 C 330.9574,270.13638 329.29368,264.85766 327.48624,255.28608 C 326.41811,248.95987 325.35004,242.65415 324.28204,236.36892 C 323.87118,234.60256 323.76848,233.22639 323.97394,232.24042 C 324.05603,231.74753 324.36413,230.86432 324.89823,229.59078 C 325.51436,228.02983 326.02785,226.50988 326.43871,225.03095 C 326.97268,223.30568 326.64405,221.16954 325.4528,218.62253 C 324.26143,216.03459 322.90581,214.74059 321.38592,214.74051 C 320.19456,214.74059 319.12649,215.64434 318.18171,217.45176 C 315.26501,223.12082 309.61657,231.74753 301.23638,243.33191 C 292.23991,255.77907 286.13959,262.94746 282.93541,264.83709 C 283.5105,261.63291 285.48232,254.44399 288.85087,243.27029 C 291.93181,233.28801 294.27335,226.03747 295.87549,221.51864 C 295.99869,221.10792 296.10139,220.69712 296.18358,220.28625 C 296.79974,217.1232 295.97815,213.96007 293.71881,210.79686 C 291.54156,207.79814 289.30272,206.29874 287.00229,206.29865 C 285.07153,206.29874 283.85968,207.5722 283.36675,210.11905 C 283.20241,210.85857 283.12025,211.68016 283.12027,212.58383 C 283.07917,215.95243 282.54513,220.22471 281.51816,225.40066 C 280.28576,231.52159 277.8826,240.78503 274.30869,253.19102 C 270.73476,265.55601 268.57808,273.56653 267.83865,277.22259 C 267.30461,279.89278 267.05814,281.92622 267.09922,283.32291 C 267.38677,290.84048 268.98887,294.59926 271.90553,294.59926 C 274.74001,294.59926 279.17661,290.84048 285.21533,283.32291 C 290.55565,276.17508 295.89599,269.04777 301.23638,261.94098 C 307.23395,254.05373 311.46515,249.84308 313.92997,249.309 C 314.79259,255.14234 317.91464,264.20039 323.29612,276.48316 C 329.2526,290.03943 333.77135,296.81756 336.8524,296.81756 C 337.42743,296.81756 337.94093,296.55054 338.39288,296.01651 C 338.02309,291.86747 338.16687,288.12923 338.82422,284.80178 C 339.31709,282.37809 340.34408,279.37929 341.90519,275.80534 C 343.54829,272.02604 344.6369,269.04777 345.17102,266.87053 C 345.99252,263.41987 349.50483,253.88941 355.70794,238.27912 C 362.23949,221.97059 366.18313,213.22064 367.53886,212.02925 C 366.79932,207.22303 366.32691,204.42962 366.12162,203.64901 C 365.341,200.97893 364.04699,199.64385 362.23959,199.64375 C 361.95194,199.64385 361.6233,199.68493 361.25368,199.76699"
       id="text8656" />
  </g>
  <g
     style="opacity:1;display:inline"
     inkscape:groupmode="layer"
     inkscape:label="qwe-logo"
     id="layer1"
     transform="translate(-178.80865,-201.98753)">
    <path
       inkscape:export-ydpi="90"
       inkscape:export-xdpi="90"
       sodipodi:nodetypes="cssssssssssssssssssssccsssc"
       inkscape:label="emacs"
       id="path9216"
       d="M 320.40993,312.93848 C 316.05117,309.27081 316.32685,305.49119 321.73917,294.7146 C 325.63429,286.95896 327.55304,284.58441 338.28804,274.23458 C 346.01901,266.781 349.77736,262.52601 348.63208,262.52363 C 347.6427,262.52157 345.3707,261.62819 343.5832,260.53833 C 337.41024,256.7746 339.90434,251.71674 354.80687,237.77752 C 364.9199,228.31821 376.40941,219.58365 385.38235,214.53341 C 396.98379,208.00375 411.13078,203.65847 415.01947,205.43027 C 418.96311,207.22711 417.90298,210.4319 411.28031,216.73382 C 405.64613,222.09513 393.61607,230.14356 392.66229,229.18978 C 392.43065,228.95815 395.13437,226.70405 398.67055,224.18068 C 402.85168,221.19709 405.33262,218.66582 405.76526,216.94206 C 406.13116,215.48418 406.19769,214.05852 405.9131,213.77393 C 405.24485,213.10568 391.95011,217.29283 387.09911,219.69935 C 374.13783,226.12927 354.3332,241.73878 354.3332,245.5246 C 354.3332,251.41232 365.67243,252.4044 375.61172,247.38628 C 382.56614,243.87516 387.3332,242.27224 387.3332,243.44495 C 387.3332,245.72767 375.02487,255.61074 368.28875,258.73684 C 357.59271,263.70067 350.1942,268.71523 341.79459,276.69404 C 334.04957,284.05105 330.3332,290.07964 330.3332,295.28639 C 330.3332,298.80885 333.28638,301.52737 337.11289,301.52737 C 345.01987,301.52737 350.30912,298.31962 373.51504,279.4507 C 391.65433,266.1419 391.74738,266.19379 369.8332,287.5498 C 367.6332,289.55545 364.65398,292.05839 363.2127,293.1119 C 361.77143,294.16541 357.49643,297.54084 353.7127,300.61285 C 349.92898,303.68487 343.24261,308.29737 338.85411,310.86286 C 329.3393,316.42514 325.11813,316.90017 320.40993,312.93848 z"
       style="fill:url(#linearGradient9804);fill-opacity:1;stroke:url(#linearGradient9806);display:inline" />
    <path
       transform="scale(0.922705,1.08377)"
       style="font-size:126.19655609px;font-style:italic;font-variant:normal;font-weight:bold;font-stretch:normal;text-align:start;line-height:100%;writing-mode:lr-tb;text-anchor:start;fill:url(#linearGradient9808);fill-opacity:1;stroke:#000000;stroke-width:1px;stroke-linecap:butt;stroke-linejoin:miter;stroke-opacity:1;display:inline;font-family:PakTypeNaqsh;-inkscape-font-specification:PakTypeNaqsh Bold Italic"
       d="M 198.33938,251.20522 C 197.2713,258.43527 197.29184,266.6101 198.401,275.72975 C 199.83878,287.27312 202.81704,293.16804 207.33582,293.41452 C 212.10103,293.661 216.66086,292.79833 221.01533,290.8265 C 223.56223,289.6352 226.62265,287.68392 230.19662,284.97266 C 233.11322,282.75437 235.08504,281.5836 236.11208,281.46035 C 238.57681,281.21389 241.24698,282.87761 244.12261,286.45153 C 244.32795,286.73909 246.11491,289.47088 249.4835,294.64691 C 251.41417,293.90748 252.50278,293.37344 252.74932,293.0448 C 252.99573,292.71617 254.04326,290.37463 255.89191,286.02019 C 254.98809,285.56832 253.18059,283.30895 250.46941,279.24206 C 247.59377,274.92872 246.29977,272.09422 246.58738,270.73858 C 246.58732,270.57428 246.6284,270.45104 246.71062,270.36886 C 256.44642,256.36075 262.19756,244.92009 263.96406,236.04685 C 264.66233,232.55514 265.01151,229.0223 265.01159,225.44831 C 264.97043,222.9836 264.16938,219.96425 262.60843,216.39026 C 261.25273,213.30936 259.83548,210.82405 258.35669,208.93431 C 256.79559,195.37813 252.40008,188.68216 245.17014,188.84638 C 242.86962,188.88756 238.22763,191.72205 231.24415,197.34986 C 222.94603,204.04592 215.96251,211.48132 210.29355,219.65608 C 202.98136,230.29577 198.99664,240.81213 198.33938,251.20522 M 238.33038,211.58394 C 235.82448,216.71897 233.29808,221.83337 230.75119,226.92717 C 227.99882,232.67838 226.19132,237.64901 225.32869,241.83907 C 223.76762,249.68532 224.81515,257.81908 228.47128,266.24036 L 228.59451,271.72449 C 221.77526,277.47565 216.22952,280.35122 211.95727,280.3512 C 209.69787,280.35122 207.74659,279.61179 206.10343,278.13291 C 205.40506,277.51673 205.09696,273.84011 205.17914,267.10303 C 205.30236,260.48925 205.63099,256.40183 206.16505,254.84077 C 214.79174,231.71301 226.84859,215.4455 242.33564,206.03819 C 242.7053,206.28476 242.84908,206.65447 242.76698,207.14734 C 242.6026,207.88686 241.92479,208.79061 240.73354,209.8586 C 239.78865,210.72135 238.9876,211.29647 238.33038,211.58394 M 252.00989,216.39026 C 257.51449,216.10278 259.28091,220.9707 257.30916,230.99406 C 257.02153,232.39082 256.67236,233.82861 256.26163,235.30741 C 253.59139,244.26282 249.66829,251.45174 244.49232,256.87421 C 243.91715,257.44936 242.56152,259.33902 240.42544,262.54319 C 238.90544,264.88476 237.71414,266.05553 236.85152,266.0555 C 236.44067,266.05553 236.07095,265.89121 235.74237,265.56255 C 232.20947,261.82433 231.16194,256.29913 232.59978,248.98692 C 233.257,245.65952 234.44831,241.9829 236.1737,237.95705 C 239.21354,230.68602 241.45238,225.90025 242.89022,223.59973 C 245.72465,218.91673 248.76454,216.51357 252.00989,216.39026 M 358.54986,197.165 C 358.0568,197.24725 353.51751,207.702 344.93197,228.52928 C 336.01761,250.05504 330.96483,263.38536 329.77359,268.52028 C 328.25357,267.53439 326.58985,262.25567 324.78242,252.68409 C 323.71428,246.35788 322.64621,240.05216 321.57821,233.76693 C 321.16735,232.00057 321.06465,230.6244 321.27011,229.63843 C 321.35221,229.14554 321.6603,228.26233 322.1944,226.98879 C 322.81053,225.42784 323.32403,223.90789 323.73489,222.42896 C 324.26886,220.70369 323.94022,218.56755 322.74898,216.02054 C 321.55761,213.4326 320.20198,212.1386 318.6821,212.13852 C 317.49073,212.1386 316.42266,213.04235 315.47789,214.84977 C 312.56118,220.51883 306.91274,229.14554 298.53255,240.72992 C 289.53608,253.17708 283.43577,260.34547 280.23158,262.2351 C 280.80668,259.03092 282.77849,251.842 286.14705,240.6683 C 289.22799,230.68602 291.56952,223.43548 293.17166,218.91665 C 293.29486,218.50593 293.39756,218.09513 293.47976,217.68426 C 294.09591,214.52121 293.27432,211.35809 291.01498,208.19487 C 288.83773,205.19615 286.59889,203.69675 284.29846,203.69666 C 282.3677,203.69675 281.15585,204.97021 280.66292,207.51706 C 280.49858,208.25658 280.41642,209.07817 280.41644,209.98184 C 280.37534,213.35044 279.84131,217.62272 278.81434,222.79867 C 277.58193,228.9196 275.17877,238.18304 271.60487,250.58903 C 268.03093,262.95402 265.87425,270.96454 265.13483,274.6206 C 264.60079,277.29079 264.35431,279.32423 264.39539,280.72092 C 264.68294,288.23849 266.28505,291.99728 269.20171,291.99727 C 272.03619,291.99728 276.47278,288.23849 282.5115,280.72092 C 287.85182,273.57309 293.19216,266.44578 298.53255,259.33899 C 304.53012,251.45174 308.76132,247.24109 311.22615,246.70701 C 312.08877,252.54035 315.21081,261.5984 320.5923,273.88117 C 326.54877,287.43744 331.06753,294.21557 334.14857,294.21557 C 334.72361,294.21557 335.2371,293.94855 335.68905,293.41452 C 335.31926,289.26548 335.46304,285.52724 336.12039,282.19979 C 336.61327,279.7761 337.64026,276.7773 339.20136,273.20335 C 340.84446,269.42405 341.93307,266.44578 342.46719,264.26854 C 343.2887,260.81788 346.801,251.28742 353.00411,235.67713 C 359.53567,219.3686 363.4793,210.61865 364.83504,209.42726 C 364.0955,204.62104 363.62308,201.82763 363.41779,201.04702 C 362.63717,198.37694 361.34317,197.04186 359.53577,197.04176 C 359.24811,197.04186 358.91947,197.08294 358.54986,197.165"
       id="text9218" />
  </g>
</svg>
